<svg width="314" height="547" viewBox="0 0 314 547" fill="none" xmlns="http://www.w3.org/2000/svg">
<path d="M19.6688 542.189C23.2307 544.975 27.2747 546.367 31.8007 546.394C37.1034 546.341 41.6562 544.439 45.4591 540.716L45.7537 540.422L305.665 272.129C307.566 270.173 309.146 267.951 310.432 265.514C311.69 263.076 312.547 260.479 313.056 257.801C313.565 255.096 313.672 252.364 313.378 249.632C313.083 246.901 312.387 244.276 311.315 241.732C310.244 239.214 308.825 236.885 307.057 234.769C305.316 232.653 303.281 230.832 301.005 229.305C298.701 227.806 296.238 226.654 293.613 225.851C290.989 225.047 288.284 224.646 285.552 224.646H185.765L279.714 28.2059L279.848 27.8845C280.785 25.7688 281.321 23.546 281.481 21.2428C281.615 18.9128 281.374 16.6632 280.758 14.4136C280.115 12.1908 279.124 10.1286 277.759 8.25395C276.393 6.37927 274.759 4.79918 272.858 3.4869C270.929 2.17462 268.867 1.23729 266.618 0.648103C264.368 0.0589214 262.092 -0.12855 259.788 0.0856991C257.485 0.299948 255.262 0.915914 253.174 1.88004C251.085 2.87094 249.21 4.18322 247.576 5.81686L247.228 6.1918L5.63552 272.423C2.85028 275.289 1.08273 278.69 0.359638 282.627C-0.390233 286.537 0.0382613 290.34 1.59157 294.035C3.14487 297.704 5.58196 300.65 8.90282 302.846C12.2237 305.069 15.8927 306.167 19.8831 306.194H133.274L14.3394 516.774L14.259 516.935C13.0807 518.997 12.3308 521.22 11.9827 523.577C11.6345 525.933 11.6881 528.263 12.1969 530.593C12.7057 532.923 13.5895 535.066 14.875 537.074C16.1605 539.083 17.7674 540.77 19.6688 542.189Z" fill="#7C3AED"/>
</svg>
